<?xml version="1.0" standalone="no"?>
<!DOCTYPE svg PUBLIC "-//W3C//DTD SVG 20010904//EN"
 "http://www.w3.org/TR/2001/REC-SVG-20010904/DTD/svg10.dtd">
<svg version="1.0" xmlns="http://www.w3.org/2000/svg"
 width="225.000000pt" height="225.000000pt" viewBox="0 0 225.000000 225.000000"
 preserveAspectRatio="xMidYMid meet">

<g transform="translate(0.000000,225.000000) scale(0.100000,-0.100000)"
fill="#000000" stroke="none">
<path d="M0 1125 l0 -1125 1125 0 1125 0 0 1125 0 1125 -1125 0 -1125 0 0
-1125z m1464 650 c145 -27 251 -106 281 -209 19 -64 19 -106 -1 -177 -22 -77
-71 -134 -148 -170 -34 -16 -55 -29 -48 -29 38 0 166 -73 215 -122 75 -74 101
-144 95 -253 -10 -169 -106 -274 -303 -332 -53 -15 -121 -18 -588 -21 -392 -2
-533 0 -543 9 -23 19 -16 43 21 79 69 66 68 63 63 609 -4 442 -6 491 -22 515
-9 15 -28 32 -41 38 -28 13 -36 28 -28 57 5 21 6 21 488 21 382 0 499 -3 559
-15z"/>
<path d="M940 1456 l0 -206 63 0 c229 0 339 88 307 246 -22 105 -100 151 -272
161 l-98 6 0 -207z"/>
<path d="M963 1103 c-22 -4 -23 -9 -23 -81 1 -138 19 -322 36 -357 20 -43 61
-58 168 -59 128 -1 205 36 248 117 18 34 23 59 23 128 0 79 -2 88 -28 122 -56
73 -175 119 -337 130 -36 3 -75 3 -87 0z"/>
</g>
</svg>
